<svg width="20" height="20" viewBox="0 0 20 20" fill="none" xmlns="http://www.w3.org/2000/svg">
<path d="M3.33268 3.33333H5.83268L7.49935 1.66666H12.4993L14.166 3.33333H16.666C17.108 3.33333 17.532 3.50893 17.8445 3.82149C18.1571 4.13405 18.3327 4.55797 18.3327 5V15C18.3327 15.442 18.1571 15.8659 17.8445 16.1785C17.532 16.4911 17.108 16.6667 16.666 16.6667H3.33268C2.89065 16.6667 2.46673 16.4911 2.15417 16.1785C1.84161 15.8659 1.66602 15.442 1.66602 15V5C1.66602 4.55797 1.84161 4.13405 2.15417 3.82149C2.46673 3.50893 2.89065 3.33333 3.33268 3.33333ZM9.99935 5.83333C8.89428 5.83333 7.83447 6.27232 7.05307 7.05372C6.27167 7.83512 5.83268 8.89493 5.83268 10C5.83268 11.1051 6.27167 12.1649 7.05307 12.9463C7.83447 13.7277 8.89428 14.1667 9.99935 14.1667C11.1044 14.1667 12.1642 13.7277 12.9456 12.9463C13.727 12.1649 14.166 11.1051 14.166 10C14.166 8.89493 13.727 7.83512 12.9456 7.05372C12.1642 6.27232 11.1044 5.83333 9.99935 5.83333ZM9.99935 7.5C10.6624 7.5 11.2983 7.76339 11.7671 8.23223C12.236 8.70107 12.4993 9.33696 12.4993 10C12.4993 10.663 12.236 11.2989 11.7671 11.7678C11.2983 12.2366 10.6624 12.5 9.99935 12.5C9.33631 12.5 8.70042 12.2366 8.23158 11.7678C7.76274 11.2989 7.49935 10.663 7.49935 10C7.49935 9.33696 7.76274 8.70107 8.23158 8.23223C8.70042 7.76339 9.33631 7.5 9.99935 7.5Z" fill="black"/>
</svg>
