<svg width="16" height="16" viewBox="0 0 16 16" fill="none" xmlns="http://www.w3.org/2000/svg">
<path opacity="0.3" d="M12.6665 10H15.3332V2H12.6665V10ZM9.99984 2H3.99984C3.4465 2 2.97317 2.33333 2.77317 2.81333L0.759837 7.51333C0.699837 7.66667 0.666504 7.82667 0.666504 8V9.33333C0.666504 9.68695 0.80698 10.0261 1.05703 10.2761C1.30708 10.5262 1.64622 10.6667 1.99984 10.6667H6.2065L5.57317 13.7133C5.55984 13.78 5.55317 13.8467 5.55317 13.92C5.55317 14.2 5.6665 14.4467 5.8465 14.6267L6.55317 15.3333L10.9398 10.94C11.1865 10.7 11.3332 10.3667 11.3332 10V3.33333C11.3332 2.59333 10.7332 2 9.99984 2Z" fill="black"/>
</svg>
