<svg width="24" height="24" viewBox="0 0 24 24" fill="none" xmlns="http://www.w3.org/2000/svg">
<path d="M15 9.18182C14.349 9.18182 13.7247 9.44042 13.2644 9.90074C12.8041 10.3611 12.5455 10.9854 12.5455 11.6364C12.5455 12.2873 12.8041 12.9117 13.2644 13.372C13.7247 13.8323 14.349 14.0909 15 14.0909C15.651 14.0909 16.2753 13.8323 16.7356 13.372C17.1959 12.9117 17.4545 12.2873 17.4545 11.6364C17.4545 10.9854 17.1959 10.3611 16.7356 9.90074C16.2753 9.44042 15.651 9.18182 15 9.18182ZM15 15.7273C13.915 15.7273 12.8745 15.2963 12.1073 14.5291C11.3401 13.7619 10.9091 12.7213 10.9091 11.6364C10.9091 10.5514 11.3401 9.51085 12.1073 8.74365C12.8745 7.97646 13.915 7.54545 15 7.54545C16.085 7.54545 17.1255 7.97646 17.8927 8.74365C18.6599 9.51085 19.0909 10.5514 19.0909 11.6364C19.0909 12.7213 18.6599 13.7619 17.8927 14.5291C17.1255 15.2963 16.085 15.7273 15 15.7273ZM15 5.5C10.9091 5.5 7.41545 8.04455 6 11.6364C7.41545 15.2282 10.9091 17.7727 15 17.7727C19.0909 17.7727 22.5845 15.2282 24 11.6364C22.5845 8.04455 19.0909 5.5 15 5.5Z" fill="#131313"/>
</svg>
