<svg width="14" height="14" viewBox="0 0 14 14" fill="none" xmlns="http://www.w3.org/2000/svg">
<path d="M6.66666 12.9529L6.05651 12.3324L6.05582 12.3317C4.33023 10.5837 2.93531 9.16766 1.96602 7.84292C1.00335 6.52722 0.5 5.35279 0.5 4.09608C0.5 2.01808 1.93955 0.5 3.66666 0.5C4.65376 0.5 5.6269 1.01641 6.27016 1.85368L6.66666 2.36976L7.06315 1.85368C7.70642 1.01641 8.67955 0.5 9.66665 0.5C11.3938 0.5 12.8333 2.01808 12.8333 4.09608C12.8333 5.35279 12.33 6.52722 11.3673 7.84292C10.398 9.16766 9.00308 10.5837 7.27749 12.3317L7.27681 12.3324L6.66666 12.9529Z" stroke="black"/>
</svg>
