<?xml version="1.0" encoding="iso-8859-1"?>
<!-- Generator: Adobe Illustrator 19.0.0, SVG Export Plug-In . SVG Version: 6.00 Build 0)  -->
<svg version="1.1" id="Capa_1" xmlns="http://www.w3.org/2000/svg" xmlns:xlink="http://www.w3.org/1999/xlink" x="0px" y="0px"
	 viewBox="0 0 512 512" style="enable-background:new 0 0 512 512;" xml:space="preserve">
<g>
	<g>
		<path d="M502,20.031H10c-5.523,0-10,4.478-10,10v451.938c0,5.522,4.477,10,10,10h97c5.523,0,10-4.478,10-10
			c0-5.522-4.477-10-10-10H20V111.98c0.33,0.033,0.665,0.051,1.004,0.051H492v359.938h-17.788v-43.205
			c0-19.523-12.451-36.767-30.983-42.906l-35.288-11.694c4.307-5.068,7.822-10.824,10.358-17.082h29.715c5.523,0,10-4.478,10-10
			v-28.205c0-53.986-43.921-97.908-97.908-97.908s-97.908,43.922-97.908,97.908v28.205c0,5.522,4.477,10,10,10h29.715
			c2.537,6.258,6.051,12.014,10.358,17.082l-35.288,11.694C258.451,391.997,246,409.24,246,428.763v43.205h-46.513
			c-5.523,0-10,4.478-10,10c0,5.522,4.477,10,10,10H256h208.212H502c5.523,0,10-4.478,10-10V30.031
			C512,24.508,507.523,20.031,502,20.031z M438.014,337.081h-15.235c0.064-1.161,0.103-2.329,0.103-3.506v-13.768
			c0-0.093-0.007-0.184-0.007-0.276h15.139V337.081z M282.198,337.081v-17.55h15.139c0,0.093-0.007,0.184-0.007,0.276v13.768
			c0,1.177,0.039,2.345,0.103,3.506H282.198z M300.709,299.53h-16.078c8.625-33.631,39.192-58.563,75.475-58.563
			c36.283,0,66.85,24.932,75.475,58.563h-16.078c-8.453-24.692-31.877-42.5-59.397-42.5
			C332.586,257.03,309.162,274.838,300.709,299.53z M360.106,332.364c-5.523,0-10,4.478-10,10v10.334c0,5.522,4.477,10,10,10h31.292
			c-2.269,2.436-4.814,4.61-7.591,6.465c-0.657,0.32-1.278,0.711-1.852,1.168c-6.4,3.818-13.871,6.02-21.849,6.02
			c-7.978,0-15.448-2.201-21.847-6.019c-0.575-0.457-1.197-0.849-1.856-1.17c-11.489-7.678-19.073-20.762-19.073-35.587v-13.768
			c0-23.587,19.189-42.776,42.776-42.776c23.587,0,42.776,19.189,42.776,42.776v13.768c0,3.131-0.348,6.181-0.989,9.123h-31.787
			v-0.334C370.106,336.842,365.629,332.364,360.106,332.364z M454.211,471.968H266v0v-43.205c0-10.885,6.942-20.498,17.274-23.922
			l47.555-15.76c8.748,4.633,18.708,7.269,29.277,7.269c10.569,0,20.529-2.636,29.277-7.269l47.555,15.76
			c10.332,3.424,17.273,13.037,17.273,23.922V471.968z M492,92.031H21.004c-0.339,0-0.674,0.018-1.004,0.051V40.031h472V92.031z"/>
	</g>
</g>
<g>
	<g>
		<path d="M161.55,474.899c-1.86-1.869-4.44-2.93-7.07-2.93c-2.64,0-5.21,1.061-7.07,2.93c-1.87,1.86-2.93,4.44-2.93,7.07
			s1.06,5.21,2.93,7.07c1.86,1.859,4.43,2.93,7.07,2.93c2.63,0,5.21-1.07,7.07-2.93c1.86-1.86,2.93-4.44,2.93-7.07
			S163.41,476.759,161.55,474.899z"/>
	</g>
</g>
<g>
	<g>
		<path d="M448,56.031H222.065c-5.523,0-10,4.478-10,10c0,5.522,4.477,10,10,10H448c5.523,0,10-4.478,10-10
			C458,60.509,453.523,56.031,448,56.031z"/>
	</g>
</g>
<g>
	<g>
		<path d="M111.07,58.96c-1.86-1.861-4.44-2.93-7.07-2.93s-5.21,1.069-7.07,2.93C95.07,60.819,94,63.399,94,66.03
			c0,2.63,1.07,5.21,2.93,7.069c1.86,1.86,4.44,2.931,7.07,2.931s5.21-1.07,7.07-2.931c1.86-1.859,2.93-4.439,2.93-7.069
			C114,63.399,112.93,60.819,111.07,58.96z"/>
	</g>
</g>
<g>
	<g>
		<path d="M71.07,58.96c-1.86-1.861-4.44-2.93-7.07-2.93s-5.21,1.069-7.07,2.93C55.07,60.819,54,63.399,54,66.03
			c0,2.63,1.07,5.21,2.93,7.069c1.86,1.86,4.44,2.931,7.07,2.931s5.21-1.07,7.07-2.931C72.93,71.24,74,68.66,74,66.03
			C74,63.399,72.93,60.819,71.07,58.96z"/>
	</g>
</g>
<g>
	<g>
		<path d="M151.07,58.96c-1.86-1.861-4.44-2.93-7.07-2.93s-5.21,1.069-7.07,2.93c-1.86,1.859-2.93,4.439-2.93,7.07
			c0,2.63,1.07,5.21,2.93,7.069c1.86,1.86,4.44,2.931,7.07,2.931s5.21-1.07,7.07-2.931c1.86-1.859,2.93-4.439,2.93-7.069
			C154,63.399,152.93,60.819,151.07,58.96z"/>
	</g>
</g>
<g>
	<g>
		<path d="M214.349,138.031H94.63c-22.404,0-40.63,18.227-40.63,40.631V261.4c0,22.404,18.227,40.631,40.63,40.631h119.718
			c22.404,0,40.631-18.227,40.631-40.631v-82.738C254.979,156.258,236.752,138.031,214.349,138.031z M214.349,282.031H94.63
			c-11.375,0-20.63-9.255-20.63-20.631v-82.738c0-11.376,9.255-20.631,20.63-20.631h119.718c11.375,0,20.63,9.255,20.63,20.631
			V261.4h0.001C234.979,272.776,225.724,282.031,214.349,282.031z"/>
	</g>
</g>
<g>
	<g>
		<path d="M184.375,203.225l-38.225-24.501c-6.146-3.939-13.944-4.211-20.35-0.709c-6.406,3.503-10.385,10.214-10.385,17.515v49.002
			c0,7.301,3.979,14.012,10.385,17.515c2.992,1.636,6.288,2.448,9.577,2.448c3.753,0,7.498-1.058,10.773-3.157l38.225-24.501
			c5.754-3.688,9.19-9.971,9.19-16.806C193.565,213.196,190.128,206.913,184.375,203.225z M135.415,244.458l0.003-48.857
			l38.112,24.431L135.415,244.458z"/>
	</g>
</g>
<g>
	<g>
		<path d="M137.494,378.031H64c-5.523,0-10,4.478-10,10c0,5.522,4.477,10,10,10h73.494c5.523,0,10-4.478,10-10
			C147.494,382.509,143.017,378.031,137.494,378.031z"/>
	</g>
</g>
<g>
	<g>
		<path d="M210.814,378.031H183.11c-5.523,0-10,4.478-10,10c0,5.522,4.477,10,10,10h27.704c5.523,0,10-4.478,10-10
			C220.814,382.509,216.337,378.031,210.814,378.031z"/>
	</g>
</g>
<g>
	<g>
		<path d="M169.387,330.031H64c-5.523,0-10,4.478-10,10c0,5.522,4.477,10,10,10h105.387c5.523,0,10-4.478,10-10
			C179.387,334.509,174.91,330.031,169.387,330.031z"/>
	</g>
</g>
<g>
	<g>
		<path d="M218.25,332.959c-1.86-1.86-4.44-2.93-7.07-2.93c-2.64,0-5.21,1.069-7.07,2.93c-1.86,1.859-2.93,4.439-2.93,7.07
			c0,2.63,1.07,5.21,2.93,7.069c1.86,1.86,4.43,2.931,7.07,2.931c2.63,0,5.21-1.07,7.07-2.931c1.86-1.859,2.93-4.439,2.93-7.069
			S220.11,334.819,218.25,332.959z"/>
	</g>
</g>
<g>
	<g>
		<path d="M210.8,426.031H64c-5.523,0-10,4.478-10,10c0,5.522,4.477,10,10,10h146.8c5.523,0,10-4.478,10-10
			C220.8,430.509,216.323,426.031,210.8,426.031z"/>
	</g>
</g>
<g>
</g>
<g>
</g>
<g>
</g>
<g>
</g>
<g>
</g>
<g>
</g>
<g>
</g>
<g>
</g>
<g>
</g>
<g>
</g>
<g>
</g>
<g>
</g>
<g>
</g>
<g>
</g>
<g>
</g>
</svg>
