<svg id="Capa_1" enable-background="new 0 0 512 512" height="512" viewBox="0 0 512 512" width="512" xmlns="http://www.w3.org/2000/svg"><g><path d="m512 29.333h-216c-15.75 0-29.964 6.665-40 17.31-10.036-10.645-24.25-17.31-40-17.31h-216v360.667h114.973c23.652 54.471 77.959 92.667 141.027 92.667s117.375-38.196 141.027-92.667h114.973zm-30 330.667h-75.476c2.06-10.016 3.143-20.384 3.143-31 0-12.037-1.395-23.753-4.025-35h34.858v-30h-45.28c-5.769-12.307-13.121-23.727-21.796-34h67.076v-30h-101.092c-20.078-13.027-43.372-21.496-68.408-23.933v-91.734c0-13.785 11.215-25 25-25h186zm-226 92.667c-68.19 0-123.667-55.477-123.667-123.667s55.477-123.667 123.667-123.667 123.667 55.477 123.667 123.667-55.477 123.667-123.667 123.667zm-226-393.334h186c13.785 0 25 11.215 25 25v91.733c-25.036 2.437-48.33 10.906-68.409 23.933h-101.091v30h67.075c-8.674 10.273-16.027 21.693-21.796 34h-45.279v30h34.858c-2.63 11.247-4.025 22.963-4.025 35 0 10.616 1.083 20.984 3.143 31h-75.476z"/><path d="m71.5 136h128v30h-128z"/><path d="m312.5 136h128v30h-128z"/><path d="m327.5 341.99v-25.98l-103.9-59.987-22.5 12.99v119.973l22.5 12.99zm-96.4-46.996 58.9 34.006-58.9 34.006z"/></g></svg>