<svg width="16" height="16" viewBox="0 0 16 16" fill="none" xmlns="http://www.w3.org/2000/svg">
<path opacity="0.3" d="M15.3332 6.66663C15.3332 5.92663 14.7332 5.33329 13.9998 5.33329H9.7865L10.4265 2.28663C10.4398 2.21996 10.4465 2.14663 10.4465 2.07329C10.4465 1.79996 10.3332 1.54663 10.1532 1.36663L9.4465 0.666626L5.05984 5.05329C4.81317 5.29996 4.6665 5.63329 4.6665 5.99996V12.6666C4.6665 13.0202 4.80698 13.3594 5.05703 13.6094C5.30708 13.8595 5.64621 14 5.99984 14H11.9998C12.5532 14 13.0265 13.6666 13.2265 13.1866L15.2398 8.48663C15.2998 8.33329 15.3332 8.17329 15.3332 7.99996V6.66663ZM0.666504 14H3.33317V5.99996H0.666504V14Z" fill="black"/>
</svg>
