<svg id="Layer_3" enable-background="new 0 0 64 64" height="512" viewBox="0 0 64 64" width="512" xmlns="http://www.w3.org/2000/svg"><g><path d="m62 7h-5v-6h-2v6h-10v-6h-2v6h-10v-6h-2v6h-10v-6h-2v6h-10v-6h-2v6h-5c-.553 0-1 .447-1 1v48 6c0 .553.447 1 1 1h60c.553 0 1-.447 1-1v-18-36c0-.553-.447-1-1-1zm-1 36h-11c-.553 0-1 .447-1 1v11h-46v-34h58zm-1.414 2-8.586 8.586v-8.586zm-52.586-36v4h2v-4h10v4h2v-4h10v4h2v-4h10v4h2v-4h10v4h2v-4h4v10h-58v-10zm-4 52v-4h47c.277 0 .527-.113.708-.294l10.292-10.292v14.586z"/><path d="m11 35c3.309 0 6-2.691 6-6s-2.691-6-6-6-6 2.691-6 6 2.691 6 6 6zm0-10c2.206 0 4 1.794 4 4s-1.794 4-4 4-4-1.794-4-4 1.794-4 4-4z"/><path d="m25 35c3.309 0 6-2.691 6-6s-2.691-6-6-6-6 2.691-6 6 2.691 6 6 6zm0-10c2.206 0 4 1.794 4 4s-1.794 4-4 4-4-1.794-4-4 1.794-4 4-4z"/><path d="m39 35c3.309 0 6-2.691 6-6s-2.691-6-6-6-6 2.691-6 6 2.691 6 6 6zm0-10c2.206 0 4 1.794 4 4s-1.794 4-4 4-4-1.794-4-4 1.794-4 4-4z"/><path d="m11 41c-3.309 0-6 2.691-6 6s2.691 6 6 6 6-2.691 6-6-2.691-6-6-6zm0 10c-2.206 0-4-1.794-4-4s1.794-4 4-4 4 1.794 4 4-1.794 4-4 4z"/><path d="m25 53c3.309 0 6-2.691 6-6 0-1.387-.478-2.662-1.271-3.68l1.119-1.79-1.695-1.061-.925 1.48c-.934-.597-2.04-.949-3.228-.949-3.309 0-6 2.691-6 6s2.691 6 6 6zm0-10c.799 0 1.541.241 2.166.647l-2.194 3.51-1.141-1.711-1.664 1.109 2 3c.187.278.499.445.833.445h.015c.34-.005.653-.182.833-.47l2.706-4.329c.275.544.446 1.149.446 1.799 0 2.206-1.794 4-4 4s-4-1.794-4-4 1.794-4 4-4z"/><path d="m39 53c3.309 0 6-2.691 6-6 0-1.387-.478-2.662-1.271-3.68l1.119-1.79-1.695-1.061-.925 1.48c-.934-.597-2.04-.949-3.228-.949-3.309 0-6 2.691-6 6s2.691 6 6 6zm0-10c.799 0 1.541.241 2.166.647l-2.194 3.51-1.141-1.711-1.664 1.109 2 3c.187.278.499.445.833.445h.015c.34-.005.653-.182.833-.47l2.706-4.329c.275.544.446 1.149.446 1.799 0 2.206-1.794 4-4 4s-4-1.794-4-4 1.794-4 4-4z"/><path d="m53 35c3.309 0 6-2.691 6-6s-2.691-6-6-6-6 2.691-6 6 2.691 6 6 6zm0-10c2.206 0 4 1.794 4 4s-1.794 4-4 4-4-1.794-4-4 1.794-4 4-4z"/></g></svg>