<svg width="13" height="14" viewBox="0 0 13 14" fill="none" xmlns="http://www.w3.org/2000/svg">
<path d="M4.82857 0C6.10919 0 7.33735 0.547855 8.24289 1.52304C9.14842 2.49823 9.65714 3.82087 9.65714 5.2C9.65714 6.488 9.21886 7.672 8.49829 8.584L8.69886 8.8H9.28571L13 12.8L11.8857 14L8.17143 10V9.368L7.97086 9.152C7.124 9.928 6.02457 10.4 4.82857 10.4C3.54795 10.4 2.31979 9.85215 1.41426 8.87696C0.508723 7.90177 0 6.57913 0 5.2C0 3.82087 0.508723 2.49823 1.41426 1.52304C2.31979 0.547855 3.54795 0 4.82857 0ZM4.82857 1.6C2.97143 1.6 1.48571 3.2 1.48571 5.2C1.48571 7.2 2.97143 8.8 4.82857 8.8C6.68571 8.8 8.17143 7.2 8.17143 5.2C8.17143 3.2 6.68571 1.6 4.82857 1.6Z" fill="#030303"/>
</svg>
