<?xml version="1.0"?>
<svg xmlns="http://www.w3.org/2000/svg" id="outline" viewBox="0 0 512 512" width="512" height="512"><path d="M56,496H246.45947a17.54057,17.54057,0,0,0,6.51416-33.82666L224,450.584V430.14062a14.10175,14.10175,0,0,0-16-14.01232V400.645l13.07764,10.4624a58.8359,58.8359,0,0,0,79.86865-5.9082l80.96826-87.19629a37.74322,37.74322,0,0,0-.96924-52.37109l-7.28857-7.28858a8,8,0,0,0-11.31348,0L352,268.68652,343.31348,260A13.65669,13.65669,0,0,0,320,269.65674v23.02978l-56.41846,56.418-41.3872-35.4751A40.02788,40.02788,0,0,0,196.1626,304H172.65009A39.76011,39.76011,0,0,0,176,288V252.94421l3.37891-1.68933A22.83285,22.83285,0,0,0,169.167,208H136a40.04521,40.04521,0,0,0-40,40v56H56a40.04521,40.04521,0,0,0-40,40V456A40.04521,40.04521,0,0,0,56,496ZM258.79346,366.07422a8.00032,8.00032,0,0,0,10.86328-.41748l64-64A7.99877,7.99877,0,0,0,336,296V275.31348l10.34326,10.34326a8,8,0,0,0,11.31348,0L368,275.31348l1.63184,1.63183a21.74333,21.74333,0,0,1,.5581,30.16992L289.22168,394.312a42.83565,42.83565,0,0,1-58.14893,4.30127l-6.16967-4.93579,26.8858-33.60724ZM112,248a24.02687,24.02687,0,0,1,24-24h33.167a6.83293,6.83293,0,0,1,3.05615,12.94434L166.11182,240H128a7.99877,7.99877,0,0,0-5.65674,2.34326L112,252.68652Zm0,27.31348L131.31348,256H160v32a24,24,0,0,1-48,0Zm0,44.66467a39.96947,39.96947,0,0,0,32,7.21692V328a16,16,0,0,1-32,0ZM32,344a24.02687,24.02687,0,0,1,24-24H96v8a32,32,0,0,0,64,0v-8h-.02777L160,319.97815V320h36.1626a24.01323,24.01323,0,0,1,15.61865,5.77783l27.85242,23.87366-27.22455,34.03076-7.41156-5.92932A8.00013,8.00013,0,0,0,192,384v41.05194L181.57764,432H88V376H72v24H32Zm0,72H72v24a7.99977,7.99977,0,0,0,8,8H184a7.996,7.996,0,0,0,4.4375-1.34375L208,433.61475V456a7.99975,7.99975,0,0,0,5.02881,7.42773l34.00293,13.60157A1.54046,1.54046,0,0,1,246.45947,480H56a24.02687,24.02687,0,0,1-24-24Z"/><path d="M464,16H240a32.036,32.036,0,0,0-32,32V288h16V48a16.01833,16.01833,0,0,1,16-16h67.05591l5.78882,11.57764A7.99924,7.99924,0,0,0,320,48h64a7.99924,7.99924,0,0,0,7.15527-4.42236L396.94409,32H464a16.01833,16.01833,0,0,1,16,16V464a16.01833,16.01833,0,0,1-16,16H280v16H464a32.036,32.036,0,0,0,32-32V48A32.036,32.036,0,0,0,464,16Z"/><rect x="248" y="56" width="32" height="16"/><rect x="424" y="56" width="32" height="16"/><path d="M344,104H324.28125l-13.625-20.4375a7.99959,7.99959,0,0,0-13.3125,0L283.71875,104H264a7.99971,7.99971,0,0,0-5.56689,13.74512l17.46875,16.92724-3.80372,24.0791a7.99971,7.99971,0,0,0,12.33935,7.90479L304,153.61475l19.56249,13.0415a7.99971,7.99971,0,0,0,12.33937-7.90479l-3.80372-24.0791,17.46875-16.92724A7.99971,7.99971,0,0,0,344,104Zm-26.019,22.07275a7.99781,7.99781,0,0,0-2.335,6.99366l1.60351,10.15185-8.812-5.87451a7.99891,7.99891,0,0,0-8.875,0l-8.812,5.87451,1.60351-10.15185a7.99781,7.99781,0,0,0-2.335-6.99366L283.75244,120H288a7.99943,7.99943,0,0,0,6.65625-3.5625L304,102.42236l9.34375,14.01514A7.99943,7.99943,0,0,0,320,120h4.24756Z"/><path d="M408,80a7.99943,7.99943,0,0,0-6.65625,3.5625L387.71875,104H368a7.99971,7.99971,0,0,0-5.56689,13.74512l17.46875,16.92724-3.80372,24.0791a7.99971,7.99971,0,0,0,12.33935,7.90479L408,153.61475l19.56249,13.0415a7.99971,7.99971,0,0,0,12.33937-7.90479l-3.80372-24.0791,17.46875-16.92724A7.99971,7.99971,0,0,0,448,104H428.28125l-13.625-20.4375A7.99943,7.99943,0,0,0,408,80Zm16,40h4.24756l-6.2666,6.07275a7.99781,7.99781,0,0,0-2.335,6.99366l1.60351,10.15185-8.812-5.87451a7.99891,7.99891,0,0,0-8.875,0l-8.812,5.87451,1.60351-10.15185a7.99781,7.99781,0,0,0-2.335-6.99366L387.75244,120H392a7.99943,7.99943,0,0,0,6.65625-3.5625L408,102.42236l9.34375,14.01514A7.99943,7.99943,0,0,0,424,120Z"/><path d="M352,160a7.99943,7.99943,0,0,0-6.65625,3.5625L331.71875,184H312a7.99971,7.99971,0,0,0-5.56689,13.74512l17.46875,16.92724-3.80372,24.0791a7.99971,7.99971,0,0,0,12.33935,7.90479L352,233.61475l19.56249,13.0415a7.99971,7.99971,0,0,0,12.33937-7.90479l-3.80372-24.0791,17.46875-16.92724A7.99971,7.99971,0,0,0,392,184H372.28125l-13.625-20.4375A7.99943,7.99943,0,0,0,352,160Zm16,40h4.24756l-6.2666,6.07275a7.99781,7.99781,0,0,0-2.335,6.99366l1.60351,10.15185-8.812-5.87451a7.99891,7.99891,0,0,0-8.875,0l-8.812,5.87451,1.60351-10.15185a7.99781,7.99781,0,0,0-2.335-6.99366L331.75244,200H336a7.99943,7.99943,0,0,0,6.65625-3.5625L352,182.42236l9.34375,14.01514A7.99943,7.99943,0,0,0,368,200Z"/><path d="M288,448v16h80a7.99977,7.99977,0,0,0,8-8V384a7.99977,7.99977,0,0,0-8-8H344v16h16v56Z"/><rect x="392" y="440" width="24" height="16"/><rect x="392" y="408" width="56" height="16"/><rect x="392" y="376" width="24" height="16"/><rect x="432" y="376" width="32" height="16"/></svg>
