<svg width="16" height="16" viewBox="0 0 16 16" fill="none" xmlns="http://www.w3.org/2000/svg">
<path d="M7.36997 12.9836L7.36925 12.9829C5.64275 11.4174 4.24999 10.1516 3.28301 8.96857C2.32152 7.79226 1.83337 6.75896 1.83337 5.66667C1.83337 3.8834 3.22225 2.5 5.00004 2.5C6.00889 2.5 6.98544 2.97223 7.62062 3.71231L8.00004 4.15438L8.37946 3.71231C9.01464 2.97223 9.99119 2.5 11 2.5C12.7778 2.5 14.1667 3.8834 14.1667 5.66667C14.1667 6.75896 13.6786 7.79226 12.7171 8.96857C11.7501 10.1516 10.3573 11.4174 8.63084 12.9829L8.63012 12.9836L8.00004 13.5572L7.36997 12.9836Z" stroke="black"/>
</svg>
