<svg width="78" height="87" viewBox="0 0 78 87" fill="none" xmlns="http://www.w3.org/2000/svg">
<path d="M32.4758 54.275L49.3302 43.42L32.4758 32.565V54.275ZM70.0166 25.9435C70.4388 27.6441 70.731 29.9236 70.9259 32.8183C71.1532 35.7129 71.2506 38.2096 71.2506 40.3806L71.4455 43.42C71.4455 51.3442 70.9259 57.1697 70.0166 60.8966C69.2047 64.1531 67.3212 66.2517 64.3985 67.1563C62.8722 67.6267 60.0793 67.9523 55.7927 68.1694C51.571 68.4227 47.7065 68.5312 44.1343 68.5312L38.9708 68.7483C25.3639 68.7483 16.888 68.1694 13.5431 67.1563C10.6204 66.2517 8.73685 64.1531 7.92498 60.8966C7.50281 59.1959 7.21054 56.9164 7.01569 54.0217C6.78837 51.1271 6.69094 48.6304 6.69094 46.4594L6.49609 43.42C6.49609 35.4959 7.01569 29.6703 7.92498 25.9435C8.73685 22.687 10.6204 20.5883 13.5431 19.6837C15.0694 19.2134 17.8622 18.8877 22.1489 18.6706C26.3706 18.4173 30.2351 18.3088 33.8073 18.3088L38.9708 18.0917C52.5777 18.0917 61.0536 18.6706 64.3985 19.6837C67.3212 20.5883 69.2047 22.687 70.0166 25.9435Z" fill="#393939"/>
</svg>
